# xmcd
#
# Track frame offsets:
#	150
#	13721
#	27587
#	41129
#	55519
#	69305
#	82598
#	95911
#	109154
#	122684
#	136157
#	150948
#	165038
#	178814
#	192928
#	205593
#	219716
#	232856
#	246054
#	259518
#	273471
#	286009
#	300039
#	312947
#	325619
#
# Disc length: 4516 seconds
#
# Revision: 3
# Processed by: cddbd v1.5.2PL0 Copyright (c) Steve Scherf et al.
# Submitted via: EZCDAudioConverter 3.1.0.1
#
DISCID=3b11a219
DTITLE=Memphis Minnie - Queen Of Country Blues
DYEAR=1936
DGENRE=Blues
TTITLE0=Ice Man (Come On Up)
TTITLE1=Hoodoo Lady
TTITLE2=My Strange Man
TTITLE3=I'm A Gamblin' Woman
TTITLE4=I'm A Bad Luck Woman
TTITLE5=Caught Me Wrong Again
TTITLE6=Black Cat Blues [Take 1]
TTITLE7=Black Cat Blues [Take 2]
TTITLE8=Good Morning
TTITLE9=Man You Won't Give Me No Money
TTITLE10=If You See My Rooster (Please Run Him Home)
TTITLE11=I Don't Want You No More
TTITLE12=Out In The Cold
TTITLE13=Dragging My Heart Around
TTITLE14=Moonshine
TTITLE15=It's Hard To Be Mistreated
TTITLE16=Haunted Blues [Take 1]
TTITLE17=Haunted Blues [Take 2]
TTITLE18=Hot Stuff [Take 1]
TTITLE19=Hot Stuff [Take 2]
TTITLE20=Living The Best I Can
TTITLE21=You Can't Rule Me
TTITLE22=No Need You Doggin' Me
TTITLE23=Look What You Got [Take 1]
TTITLE24=Look What You Got [Take 2]
EXTD=
EXTT0=
EXTT1=
EXTT2=
EXTT3=
EXTT4=
EXTT5=
EXTT6=
EXTT7=
EXTT8=
EXTT9=
EXTT10=
EXTT11=
EXTT12=
EXTT13=
EXTT14=
EXTT15=
EXTT16=
EXTT17=
EXTT18=
EXTT19=
EXTT20=
EXTT21=
EXTT22=
EXTT23=
EXTT24=
PLAYORDER=
